<svg width="63" height="66" viewBox="0 0 63 66" fill="none" xmlns="http://www.w3.org/2000/svg">
<rect width="62.5625" height="65.3839" rx="5" fill="#C1CEDA"/>
<mask id="mask0" mask-type="alpha" maskUnits="userSpaceOnUse" x="0" y="0" width="63" height="66">
<rect width="62.4615" height="65.3839" rx="5" fill="#C4C4C4"/>
</mask>
<g mask="url(#mask0)">
<path d="M61.926 56.8658C61.926 56.8658 59.0819 54.9284 48.6428 51.941C46.4819 51.3199 44.464 50.3586 42.6686 49.1015C42.2713 48.8205 41.89 48.5395 41.5245 48.2585C41.2227 48.0219 41.032 47.6818 41.0002 47.312C40.9525 46.6909 40.889 45.6261 40.8413 44.5613C40.7937 43.038 40.7937 41.4851 41.032 41.1746C41.032 41.1746 41.4292 40.7161 41.9377 40.021C42.5732 39.1337 43.0022 38.1132 43.177 37.0632C43.3041 36.2942 43.4312 35.3329 43.4312 34.4159C43.4312 34.4159 44.5117 34.8005 45.1155 33.8392C45.1155 33.8392 45.2744 33.1884 45.4491 32.7596C45.5921 32.4046 45.7034 32.0497 45.7351 31.6652C45.8146 30.9701 45.9576 29.9496 46.2595 29.3137C46.609 28.5742 46.7203 27.7313 46.5296 26.9474C46.3548 26.1784 45.9258 25.5425 45.0042 25.927C45.0042 25.927 45.0519 25.6904 45.1631 25.3354C45.6239 23.9452 45.8781 22.5107 45.9099 21.0762C45.9258 20.174 45.9894 19.2127 46.18 18.4585L46.1483 18.4733C46.3071 17.3937 46.3548 15.6042 45.8623 12.8534C45.2108 9.17093 42.6844 8.94909 42.6844 8.94909C42.3826 8.52021 43.2406 8.28358 43.2406 8.28358C42.1124 7.61807 39.9198 8.28358 39.9198 8.28358V8.47584C39.9992 6.10958 37.1868 6.06522 37.1868 6.06522C37.1868 6.06522 36.7261 5.25182 36.7261 5.44408C36.7261 5.63633 35.5979 5.87296 35.5979 5.87296C35.8522 5.25182 33.1987 5.63633 33.1987 5.63633C28.7974 4.02432 27.2085 6.15395 27.2085 6.15395C23.5223 6.30184 24.2373 7.15961 24.2373 7.15961C21.5203 7.92865 19.6295 10.6794 19.6295 10.6794C18.9462 10.6794 18.3107 13.0605 17.8817 15.1753C17.548 16.8317 17.4527 18.5176 17.5639 20.2036C17.5957 20.6325 17.5957 21.0466 17.5957 21.4607C17.5957 22.6734 17.8022 23.8861 18.2312 25.0249C18.4219 25.5573 18.5014 25.9122 18.5014 25.9122C17.5798 25.5277 17.1667 26.1636 16.976 26.9474C16.7853 27.746 16.8966 28.5742 17.2461 29.3137C17.548 29.9348 17.691 30.9701 17.7705 31.6652C17.8022 32.0349 17.9135 32.3898 18.0565 32.7448C18.2312 33.1737 18.3901 33.8244 18.3901 33.8244C19.0098 34.7709 20.0744 34.4011 20.0744 34.4011C20.0744 35.3181 20.2015 36.2794 20.3286 37.0484C20.5034 38.1132 20.9324 39.1189 21.5679 40.0062C22.0764 40.7161 22.4736 41.1598 22.4736 41.1598C22.7119 41.4851 22.7278 43.0232 22.6643 44.5465C22.6325 45.6113 22.5531 46.6761 22.5054 47.2972C22.4736 47.667 22.2829 48.0071 21.981 48.2438C21.6156 48.5247 21.2343 48.8057 20.837 49.0867C19.0416 50.3586 17.0078 51.3199 14.8628 51.9262C4.42368 54.9136 1.57954 56.851 1.57954 56.851C1.57954 56.851 -0.35892 58.0341 -2.18616 65.3695H65.66C63.8645 58.0489 61.926 56.8658 61.926 56.8658Z" fill="#F5F7F9"/>
</g>
</svg>
